<?xml version="1.0" encoding="UTF-8"?><svg id="Layer_2" xmlns="http://www.w3.org/2000/svg" viewBox="0 0 1175.04 442.52"><defs><style>.cls-1{fill:none;stroke:#1267f1;stroke-linecap:round;stroke-linejoin:round;stroke-width:44px;}.cls-2{isolation:isolate;}.cls-3{fill:#061a3a;}</style></defs><g class="cls-2"><path class="cls-3" d="M87.03,349.53v-53.55h28.8c6.36,0,11.75,1.04,16.16,3.12s7.78,5.1,10.09,9.07c2.31,3.97,3.47,8.76,3.47,14.38v.07c0,5.71-1.16,10.58-3.47,14.58-2.31,4.01-5.68,7.06-10.09,9.17-4.42,2.1-9.8,3.15-16.16,3.15h-28.8ZM97.28,341.25h17.89c4.33,0,7.97-.71,10.93-2.12,2.96-1.41,5.2-3.48,6.74-6.22,1.53-2.73,2.3-6.12,2.3-10.15v-.07c0-3.98-.75-7.34-2.26-10.08-1.51-2.73-3.74-4.81-6.7-6.23-2.96-1.42-6.62-2.13-11-2.13h-17.89v37Z"/><path class="cls-3" d="M175.48,350.42c-5.05,0-9.39-.8-13.03-2.39s-6.43-3.92-8.39-6.96c-1.95-3.04-2.93-6.7-2.93-10.98v-.04c0-4.23,1-7.89,2.99-10.98,1.99-3.09,4.76-5.47,8.31-7.14,3.55-1.67,7.7-2.48,12.45-2.43,4.85,0,9.01.86,12.49,2.58,3.48,1.72,6.15,4.13,8.02,7.22,1.87,3.09,2.8,6.72,2.8,10.87v2.12h-42.04v-6.05h35.85l-3.3,4.71v-2.3c0-2.47-.55-4.6-1.65-6.38-1.1-1.78-2.67-3.16-4.71-4.14-2.04-.98-4.47-1.47-7.29-1.47-2.99,0-5.55.48-7.66,1.43-2.12.95-3.74,2.36-4.86,4.21-1.13,1.86-1.69,4.14-1.69,6.87v1.6c0,3.04.67,5.48,2,7.31,1.34,1.83,3.13,3.15,5.38,3.97,2.25.82,4.76,1.22,7.53,1.22,1.9,0,3.67-.2,5.31-.61s3.06-1,4.27-1.78c1.21-.78,2.1-1.73,2.67-2.84l.15-.3h9.46l-.11.41c-.62,1.96-1.6,3.7-2.93,5.23-1.34,1.53-2.97,2.83-4.9,3.88-1.93,1.05-4.09,1.84-6.49,2.38-2.4.53-4.96.8-7.68.8Z"/><path class="cls-3" d="M218.76,349.53l-19.37-39.19h10.46l14.21,30.54h.15l13.95-30.54h10.32l-19.15,39.19h-10.58Z"/><path class="cls-3" d="M274.17,350.42c-5.05,0-9.39-.8-13.03-2.39s-6.43-3.92-8.39-6.96c-1.95-3.04-2.93-6.7-2.93-10.98v-.04c0-4.23,1-7.89,2.99-10.98,1.99-3.09,4.76-5.47,8.31-7.14,3.55-1.67,7.7-2.48,12.45-2.43,4.85,0,9.01.86,12.49,2.58,3.48,1.72,6.15,4.13,8.02,7.22,1.87,3.09,2.8,6.72,2.8,10.87v2.12h-42.04v-6.05h35.85l-3.3,4.71v-2.3c0-2.47-.55-4.6-1.65-6.38-1.1-1.78-2.67-3.16-4.71-4.14-2.04-.98-4.47-1.47-7.29-1.47-2.99,0-5.55.48-7.66,1.43-2.12.95-3.74,2.36-4.86,4.21-1.13,1.86-1.69,4.14-1.69,6.87v1.6c0,3.04.67,5.48,2,7.31,1.34,1.83,3.13,3.15,5.38,3.97,2.25.82,4.76,1.22,7.53,1.22,1.9,0,3.67-.2,5.31-.61s3.06-1,4.27-1.78c1.21-.78,2.1-1.73,2.67-2.84l.15-.3h9.46l-.11.41c-.62,1.96-1.6,3.7-2.93,5.23-1.34,1.53-2.97,2.83-4.9,3.88-1.93,1.05-4.09,1.84-6.49,2.38-2.4.53-4.96.8-7.68.8Z"/><path class="cls-3" d="M303.65,349.53v-53.55h9.91v53.55h-9.91Z"/><path class="cls-3" d="M344.66,350.42c-4.87,0-9.14-.83-12.78-2.5-3.65-1.67-6.49-4.03-8.52-7.09-2.03-3.05-3.04-6.67-3.04-10.85v-.07c0-4.21,1.02-7.82,3.06-10.85,2.04-3.03,4.88-5.39,8.52-7.07,3.64-1.68,7.88-2.52,12.73-2.52s9.1.83,12.77,2.5c3.66,1.67,6.51,4.03,8.54,7.07,2.03,3.04,3.04,6.67,3.04,10.87v.07c0,4.18-1.01,7.8-3.04,10.85-2.03,3.06-4.87,5.42-8.54,7.09-3.66,1.67-7.9,2.5-12.73,2.5ZM344.66,342.89c2.82,0,5.3-.51,7.44-1.54,2.14-1.03,3.81-2.49,5.01-4.4,1.2-1.9,1.8-4.23,1.8-6.98v-.07c0-2.75-.6-5.08-1.8-7.01-1.2-1.93-2.88-3.4-5.03-4.4s-4.64-1.5-7.46-1.5-5.26.51-7.4,1.52c-2.14,1.01-3.81,2.48-5.01,4.4-1.2,1.92-1.8,4.25-1.8,7v.07c0,2.75.6,5.07,1.8,6.98,1.2,1.91,2.87,3.37,5.01,4.4,2.14,1.03,4.62,1.54,7.44,1.54Z"/><path class="cls-3" d="M375.47,362.52v-52.18h9.87v7.35h.22c1.01-1.63,2.35-3.07,4.01-4.3,1.66-1.24,3.62-2.2,5.88-2.88,2.26-.68,4.79-1.02,7.59-1.02,4.35,0,8.12.86,11.3,2.58,3.18,1.72,5.63,4.12,7.37,7.2,1.73,3.08,2.6,6.62,2.6,10.63v.07c0,4.03-.87,7.58-2.6,10.65-1.73,3.07-4.18,5.47-7.35,7.2-3.17,1.73-6.93,2.6-11.28,2.6-2.77,0-5.29-.33-7.57-1-2.28-.67-4.25-1.62-5.92-2.86-1.67-1.24-3.01-2.68-4.03-4.34h-.22v20.3h-9.87ZM399.97,342.81c2.97,0,5.52-.52,7.66-1.56,2.14-1.04,3.77-2.52,4.9-4.43,1.13-1.92,1.69-4.21,1.69-6.88v-.07c0-2.62-.56-4.9-1.69-6.83-1.13-1.93-2.76-3.41-4.92-4.43-2.15-1.03-4.7-1.54-7.64-1.54s-5.55.53-7.74,1.58c-2.19,1.05-3.89,2.55-5.1,4.49-1.21,1.94-1.82,4.2-1.82,6.77v.07c0,2.57.61,4.83,1.82,6.77,1.21,1.94,2.91,3.44,5.08,4.49,2.18,1.05,4.76,1.58,7.76,1.58Z"/><path class="cls-3" d="M453.49,350.42c-5.05,0-9.39-.8-13.03-2.39s-6.43-3.92-8.39-6.96c-1.95-3.04-2.93-6.7-2.93-10.98v-.04c0-4.23,1-7.89,2.99-10.98,1.99-3.09,4.76-5.47,8.31-7.14,3.55-1.67,7.7-2.48,12.45-2.43,4.85,0,9.01.86,12.49,2.58,3.48,1.72,6.15,4.13,8.02,7.22,1.87,3.09,2.8,6.72,2.8,10.87v2.12h-42.04v-6.05h35.85l-3.3,4.71v-2.3c0-2.47-.55-4.6-1.65-6.38-1.1-1.78-2.67-3.16-4.71-4.14-2.04-.98-4.47-1.47-7.29-1.47-2.99,0-5.55.48-7.66,1.43-2.12.95-3.74,2.36-4.86,4.21-1.13,1.86-1.69,4.14-1.69,6.87v1.6c0,3.04.67,5.48,2,7.31,1.34,1.83,3.13,3.15,5.38,3.97,2.25.82,4.76,1.22,7.53,1.22,1.9,0,3.67-.2,5.31-.61s3.06-1,4.27-1.78c1.21-.78,2.1-1.73,2.67-2.84l.15-.3h9.46l-.11.41c-.62,1.96-1.6,3.7-2.93,5.23-1.34,1.53-2.97,2.83-4.9,3.88-1.93,1.05-4.09,1.84-6.49,2.38-2.4.53-4.96.8-7.68.8Z"/><path class="cls-3" d="M482.67,349.53v-39.19l9.87.04v7.87h.22c.84-2.72,2.38-4.85,4.6-6.38,2.23-1.53,4.94-2.3,8.13-2.3.74,0,1.45.04,2.12.11s1.24.16,1.71.26v8.35c-.62-.12-1.32-.22-2.12-.3-.79-.07-1.62-.11-2.49-.11-2.47,0-4.62.46-6.44,1.39s-3.23,2.3-4.23,4.12-1.5,4.05-1.5,6.7v19.45h-9.87Z"/><path class="cls-3" d="M555.05,350.42c-4.58,0-8.48-.48-11.71-1.45s-5.75-2.36-7.57-4.17-2.89-4-3.21-6.55l-.04-.33h9.72l.07.3c.45,1.81,1.73,3.17,3.86,4.1,2.13.93,5.13,1.39,9.02,1.39,2.33,0,4.27-.2,5.84-.59,1.57-.4,2.77-.98,3.6-1.76.83-.78,1.24-1.73,1.24-2.84v-.04c0-1.34-.54-2.34-1.63-3.01-1.09-.67-2.99-1.16-5.71-1.48l-10.8-1.15c-3.14-.35-5.75-.98-7.81-1.91-2.07-.93-3.62-2.16-4.66-3.69-1.04-1.53-1.56-3.34-1.56-5.42v-.04c0-2.55.8-4.75,2.39-6.61s3.87-3.27,6.83-4.25c2.96-.98,6.49-1.47,10.59-1.47,4.38,0,8.1.49,11.15,1.47,3.06.98,5.42,2.37,7.09,4.17,1.67,1.81,2.62,3.93,2.84,6.38l.04.48h-9.2l-.04-.26c-.3-1.71-1.47-3.05-3.51-4.03-2.04-.98-4.78-1.47-8.22-1.47-2.2,0-4.06.2-5.58.59-1.52.4-2.67.98-3.45,1.74-.78.77-1.17,1.7-1.17,2.78v.04c0,.82.25,1.52.74,2.12.49.59,1.28,1.08,2.36,1.47,1.08.38,2.49.67,4.25.87l10.98,1.11c4.97.57,8.55,1.73,10.72,3.47,2.18,1.74,3.27,4.19,3.27,7.33v.04c0,2.62-.82,4.88-2.47,6.77-1.65,1.89-4.02,3.35-7.12,4.36-3.1,1.01-6.82,1.52-11.15,1.52Z"/><path class="cls-3" d="M599.93,350.42c-3.69,0-6.87-.69-9.54-2.08s-4.73-3.41-6.16-6.09c-1.44-2.67-2.15-5.89-2.15-9.65v-22.27h9.91v20.45c0,3.79.96,6.71,2.88,8.78,1.92,2.07,4.74,3.1,8.48,3.1,1.95,0,3.74-.29,5.34-.87,1.61-.58,3.01-1.44,4.19-2.58,1.19-1.14,2.11-2.49,2.76-4.04.66-1.56.98-3.34.98-5.34v-19.48h9.83v39.19h-9.83v-7.68h-.22c-.94,1.76-2.2,3.27-3.79,4.55-1.58,1.27-3.45,2.26-5.6,2.97s-4.52,1.06-7.09,1.06Z"/><path class="cls-3" d="M634.67,362.52v-52.18h9.87v7.35h.22c1.01-1.63,2.35-3.07,4.01-4.3,1.66-1.24,3.62-2.2,5.88-2.88,2.26-.68,4.79-1.02,7.59-1.02,4.35,0,8.12.86,11.3,2.58,3.18,1.72,5.63,4.12,7.37,7.2,1.73,3.08,2.6,6.62,2.6,10.63v.07c0,4.03-.87,7.58-2.6,10.65-1.73,3.07-4.18,5.47-7.35,7.2-3.17,1.73-6.93,2.6-11.28,2.6-2.77,0-5.29-.33-7.57-1-2.28-.67-4.25-1.62-5.92-2.86-1.67-1.24-3.01-2.68-4.03-4.34h-.22v20.3h-9.87ZM659.17,342.81c2.97,0,5.52-.52,7.66-1.56,2.14-1.04,3.77-2.52,4.9-4.43,1.12-1.92,1.69-4.21,1.69-6.88v-.07c0-2.62-.56-4.9-1.69-6.83-1.13-1.93-2.76-3.41-4.92-4.43-2.15-1.03-4.7-1.54-7.64-1.54s-5.55.53-7.74,1.58c-2.19,1.05-3.89,2.55-5.1,4.49-1.21,1.94-1.82,4.2-1.82,6.77v.07c0,2.57.61,4.83,1.82,6.77,1.21,1.94,2.91,3.44,5.08,4.49,2.18,1.05,4.76,1.58,7.76,1.58Z"/><path class="cls-3" d="M712.69,350.42c-5.05,0-9.39-.8-13.03-2.39s-6.43-3.92-8.39-6.96c-1.96-3.04-2.93-6.7-2.93-10.98v-.04c0-4.23,1-7.89,2.99-10.98,1.99-3.09,4.76-5.47,8.31-7.14,3.55-1.67,7.7-2.48,12.45-2.43,4.85,0,9.01.86,12.49,2.58,3.48,1.72,6.15,4.13,8.02,7.22,1.87,3.09,2.8,6.72,2.8,10.87v2.12h-42.04v-6.05h35.85l-3.3,4.71v-2.3c0-2.47-.55-4.6-1.65-6.38-1.1-1.78-2.67-3.16-4.71-4.14-2.04-.98-4.47-1.47-7.29-1.47-2.99,0-5.55.48-7.66,1.43-2.12.95-3.74,2.36-4.86,4.21-1.13,1.86-1.69,4.14-1.69,6.87v1.6c0,3.04.67,5.48,2,7.31,1.34,1.83,3.13,3.15,5.38,3.97,2.25.82,4.76,1.22,7.53,1.22,1.9,0,3.67-.2,5.31-.61s3.05-1,4.27-1.78c1.21-.78,2.1-1.73,2.67-2.84l.15-.3h9.46l-.11.41c-.62,1.96-1.6,3.7-2.93,5.23-1.34,1.53-2.97,2.83-4.9,3.88-1.93,1.05-4.09,1.84-6.49,2.38-2.4.53-4.96.8-7.68.8Z"/><path class="cls-3" d="M741.87,349.53v-39.19l9.87.04v7.87h.22c.84-2.72,2.38-4.85,4.6-6.38,2.23-1.53,4.94-2.3,8.13-2.3.74,0,1.45.04,2.12.11s1.24.16,1.71.26v8.35c-.62-.12-1.32-.22-2.12-.3-.79-.07-1.62-.11-2.49-.11-2.47,0-4.62.46-6.44,1.39s-3.23,2.3-4.23,4.12-1.5,4.05-1.5,6.7v19.45h-9.87Z"/><path class="cls-3" d="M773.75,362.52v-52.18h9.87v7.35h.22c1.01-1.63,2.35-3.07,4.01-4.3,1.66-1.24,3.62-2.2,5.88-2.88,2.26-.68,4.79-1.02,7.59-1.02,4.35,0,8.12.86,11.3,2.58,3.18,1.72,5.63,4.12,7.37,7.2s2.6,6.62,2.6,10.63v.07c0,4.03-.87,7.58-2.6,10.65-1.73,3.07-4.18,5.47-7.35,7.2s-6.93,2.6-11.28,2.6c-2.77,0-5.29-.33-7.57-1s-4.25-1.62-5.92-2.86c-1.67-1.24-3.01-2.68-4.03-4.34h-.22v20.3h-9.87ZM798.25,342.81c2.97,0,5.52-.52,7.66-1.56s3.77-2.52,4.9-4.43c1.13-1.92,1.69-4.21,1.69-6.88v-.07c0-2.62-.56-4.9-1.69-6.83s-2.76-3.41-4.92-4.43c-2.15-1.03-4.7-1.54-7.64-1.54s-5.55.53-7.74,1.58c-2.19,1.05-3.89,2.55-5.1,4.49-1.21,1.94-1.82,4.2-1.82,6.77v.07c0,2.57.61,4.83,1.82,6.77,1.21,1.94,2.91,3.44,5.08,4.49,2.18,1.05,4.76,1.58,7.76,1.58Z"/><path class="cls-3" d="M851.77,350.42c-4.87,0-9.13-.83-12.78-2.5s-6.49-4.03-8.52-7.09c-2.03-3.05-3.04-6.67-3.04-10.85v-.07c0-4.21,1.02-7.82,3.06-10.85,2.04-3.03,4.88-5.39,8.52-7.07,3.64-1.68,7.88-2.52,12.73-2.52s9.1.83,12.77,2.5,6.51,4.03,8.54,7.07,3.04,6.67,3.04,10.87v.07c0,4.18-1.01,7.8-3.04,10.85-2.03,3.06-4.87,5.42-8.54,7.09s-7.9,2.5-12.73,2.5ZM851.77,342.89c2.82,0,5.3-.51,7.44-1.54,2.14-1.03,3.81-2.49,5.01-4.4,1.2-1.9,1.8-4.23,1.8-6.98v-.07c0-2.75-.6-5.08-1.8-7.01s-2.88-3.4-5.03-4.4-4.64-1.5-7.46-1.5-5.26.51-7.4,1.52c-2.14,1.01-3.81,2.48-5.01,4.4-1.2,1.92-1.8,4.25-1.8,7v.07c0,2.75.6,5.07,1.8,6.98,1.2,1.91,2.87,3.37,5.01,4.4,2.14,1.03,4.62,1.54,7.44,1.54Z"/><path class="cls-3" d="M893.97,349.53l-14.7-39.22h10.13l10.09,29.98h.19l11.39-29.98h9.5l11.47,29.98h.19l10.09-29.98h10.06l-14.62,39.22h-10.58l-11.24-29.02h-.19l-11.24,29.02h-10.54Z"/><path class="cls-3" d="M979.82,350.42c-5.05,0-9.39-.8-13.03-2.39s-6.43-3.92-8.39-6.96-2.93-6.7-2.93-10.98v-.04c0-4.23,1-7.89,2.99-10.98,1.99-3.09,4.76-5.47,8.31-7.14s7.7-2.48,12.45-2.43c4.85,0,9.01.86,12.49,2.58,3.48,1.72,6.15,4.13,8.02,7.22,1.87,3.09,2.8,6.72,2.8,10.87v2.12h-42.04v-6.05h35.85l-3.3,4.71v-2.3c0-2.47-.55-4.6-1.65-6.38s-2.67-3.16-4.71-4.14c-2.04-.98-4.47-1.47-7.29-1.47-2.99,0-5.55.48-7.66,1.43-2.12.95-3.74,2.36-4.86,4.21s-1.69,4.14-1.69,6.87v1.6c0,3.04.67,5.48,2,7.31,1.34,1.83,3.13,3.15,5.38,3.97s4.76,1.22,7.53,1.22c1.91,0,3.67-.2,5.31-.61s3.06-1,4.27-1.78,2.1-1.73,2.67-2.84l.15-.3h9.46l-.11.41c-.62,1.96-1.6,3.7-2.93,5.23-1.34,1.53-2.97,2.83-4.9,3.88-1.93,1.05-4.09,1.84-6.49,2.38s-4.96.8-7.68.8Z"/><path class="cls-3" d="M1009,349.53v-39.19l9.87.04v7.87h.22c.84-2.72,2.38-4.85,4.6-6.38,2.23-1.53,4.94-2.3,8.13-2.3.74,0,1.45.04,2.12.11s1.24.16,1.71.26v8.35c-.62-.12-1.32-.22-2.12-.3s-1.62-.11-2.49-.11c-2.47,0-4.62.46-6.44,1.39s-3.23,2.3-4.23,4.12-1.5,4.05-1.5,6.7v19.45h-9.87Z"/><path class="cls-3" d="M1061.7,350.42c-4.58,0-8.48-.48-11.71-1.45s-5.75-2.36-7.57-4.17-2.89-4-3.21-6.55l-.04-.33h9.72l.07.3c.45,1.81,1.73,3.17,3.86,4.1s5.13,1.39,9.02,1.39c2.33,0,4.27-.2,5.84-.59,1.57-.4,2.77-.98,3.6-1.76s1.24-1.73,1.24-2.84v-.04c0-1.34-.54-2.34-1.63-3.01s-2.99-1.16-5.71-1.48l-10.8-1.15c-3.14-.35-5.75-.98-7.81-1.91s-3.62-2.16-4.66-3.69c-1.04-1.53-1.56-3.34-1.56-5.42v-.04c0-2.55.8-4.75,2.39-6.61s3.87-3.27,6.83-4.25c2.96-.98,6.49-1.47,10.59-1.47,4.38,0,8.1.49,11.15,1.47,3.06.98,5.42,2.37,7.09,4.17,1.67,1.81,2.62,3.93,2.84,6.38l.04.48h-9.2l-.04-.26c-.3-1.71-1.47-3.05-3.51-4.03-2.04-.98-4.78-1.47-8.22-1.47-2.2,0-4.06.2-5.58.59-1.52.4-2.67.98-3.45,1.74-.78.77-1.17,1.7-1.17,2.78v.04c0,.82.25,1.52.74,2.12s1.28,1.08,2.36,1.47c1.08.38,2.49.67,4.25.87l10.98,1.11c4.97.57,8.55,1.73,10.72,3.47s3.27,4.19,3.27,7.33v.04c0,2.62-.82,4.88-2.47,6.77s-4.02,3.35-7.12,4.36-6.82,1.52-11.15,1.52Z"/><path class="cls-3" d="M113.15,429.53v-31.95h-8.09v-7.24h8.09v-2.12c0-3.02.59-5.51,1.76-7.48,1.17-1.97,2.91-3.43,5.2-4.38,2.29-.95,5.14-1.43,8.55-1.43,1.39,0,2.73.07,4.03.2,1.3.14,2.41.3,3.32.5v6.57c-.92-.17-1.79-.3-2.63-.37-.84-.07-1.74-.11-2.71-.11-2.7,0-4.68.53-5.96,1.6-1.27,1.06-1.91,2.73-1.91,5.01v2h13.03v7.24h-12.8v31.95h-9.87Z"/><path class="cls-3" d="M160.78,430.42c-4.87,0-9.14-.83-12.78-2.5-3.65-1.67-6.49-4.03-8.52-7.09-2.03-3.05-3.04-6.67-3.04-10.85v-.07c0-4.21,1.02-7.82,3.06-10.85,2.04-3.03,4.88-5.39,8.52-7.07,3.64-1.68,7.88-2.52,12.73-2.52s9.1.83,12.77,2.5c3.66,1.67,6.51,4.03,8.54,7.07,2.03,3.04,3.04,6.67,3.04,10.87v.07c0,4.18-1.01,7.8-3.04,10.85-2.03,3.06-4.87,5.42-8.54,7.09-3.66,1.67-7.9,2.5-12.73,2.5ZM160.78,422.89c2.82,0,5.3-.51,7.44-1.54,2.14-1.03,3.81-2.49,5.01-4.4,1.2-1.9,1.8-4.23,1.8-6.98v-.07c0-2.75-.6-5.08-1.8-7.01-1.2-1.93-2.88-3.4-5.03-4.4s-4.64-1.5-7.46-1.5-5.26.51-7.4,1.52c-2.14,1.01-3.81,2.48-5.01,4.4-1.2,1.92-1.8,4.25-1.8,7v.07c0,2.75.6,5.07,1.8,6.98,1.2,1.91,2.87,3.37,5.01,4.4,2.14,1.03,4.62,1.54,7.44,1.54Z"/><path class="cls-3" d="M191.59,429.53v-39.19l9.87.04v7.87h.22c.84-2.72,2.38-4.85,4.6-6.38,2.23-1.53,4.94-2.3,8.13-2.3.74,0,1.45.04,2.12.11s1.24.16,1.71.26v8.35c-.62-.12-1.32-.22-2.12-.3-.79-.07-1.62-.11-2.49-.11-2.47,0-4.62.46-6.44,1.39s-3.23,2.3-4.23,4.12-1.5,4.05-1.5,6.7v19.45h-9.87Z"/><path class="cls-3" d="M241.78,429.53l26.05-53.55h9.02v9.02h-3.08l-21.15,44.53h-10.84ZM253.84,415.65l3.45-7.5h32.95l3.38,7.5h-39.78ZM295.03,429.53l-21.08-44.53v-9.02h5.86l26.05,53.55h-10.84Z"/><path class="cls-3" d="M311.15,442.52v-52.18h9.87v7.35h.22c1.01-1.63,2.35-3.07,4.01-4.3,1.66-1.24,3.62-2.2,5.88-2.88,2.26-.68,4.79-1.02,7.59-1.02,4.35,0,8.12.86,11.3,2.58,3.18,1.72,5.63,4.12,7.37,7.2,1.73,3.08,2.6,6.62,2.6,10.63v.07c0,4.03-.87,7.58-2.6,10.65-1.73,3.07-4.18,5.47-7.35,7.2-3.17,1.73-6.93,2.6-11.28,2.6-2.77,0-5.29-.33-7.57-1-2.28-.67-4.25-1.62-5.92-2.86-1.67-1.24-3.01-2.68-4.03-4.34h-.22v20.3h-9.87ZM335.64,422.81c2.97,0,5.52-.52,7.66-1.56,2.14-1.04,3.77-2.52,4.9-4.43,1.13-1.92,1.69-4.21,1.69-6.88v-.07c0-2.62-.56-4.9-1.69-6.83-1.13-1.93-2.76-3.41-4.92-4.43-2.15-1.03-4.7-1.54-7.64-1.54s-5.55.53-7.74,1.58c-2.19,1.05-3.89,2.55-5.1,4.49-1.21,1.94-1.82,4.2-1.82,6.77v.07c0,2.57.61,4.83,1.82,6.77,1.21,1.94,2.91,3.44,5.08,4.49,2.18,1.05,4.76,1.58,7.76,1.58Z"/><path class="cls-3" d="M366.49,442.52v-52.18h9.87v7.35h.22c1.01-1.63,2.35-3.07,4.01-4.3,1.66-1.24,3.62-2.2,5.88-2.88,2.26-.68,4.79-1.02,7.59-1.02,4.35,0,8.12.86,11.3,2.58,3.18,1.72,5.63,4.12,7.37,7.2,1.73,3.08,2.6,6.62,2.6,10.63v.07c0,4.03-.87,7.58-2.6,10.65-1.73,3.07-4.18,5.47-7.35,7.2-3.17,1.73-6.93,2.6-11.28,2.6-2.77,0-5.29-.33-7.57-1-2.28-.67-4.25-1.62-5.92-2.86-1.67-1.24-3.01-2.68-4.03-4.34h-.22v20.3h-9.87ZM390.98,422.81c2.97,0,5.52-.52,7.66-1.56,2.14-1.04,3.77-2.52,4.9-4.43,1.13-1.92,1.69-4.21,1.69-6.88v-.07c0-2.62-.56-4.9-1.69-6.83-1.13-1.93-2.76-3.41-4.92-4.43-2.15-1.03-4.7-1.54-7.64-1.54s-5.55.53-7.74,1.58c-2.19,1.05-3.89,2.55-5.1,4.49-1.21,1.94-1.82,4.2-1.82,6.77v.07c0,2.57.61,4.83,1.82,6.77,1.21,1.94,2.91,3.44,5.08,4.49,2.18,1.05,4.76,1.58,7.76,1.58Z"/><path class="cls-3" d="M422.13,429.53v-53.55h9.91v53.55h-9.91Z"/><path class="cls-3" d="M463.14,430.42c-5.05,0-9.39-.8-13.03-2.39s-6.43-3.92-8.39-6.96c-1.95-3.04-2.93-6.7-2.93-10.98v-.04c0-4.23,1-7.89,2.99-10.98,1.99-3.09,4.76-5.47,8.31-7.14,3.55-1.67,7.7-2.48,12.45-2.43,4.85,0,9.01.86,12.49,2.58,3.48,1.72,6.15,4.13,8.02,7.22,1.87,3.09,2.8,6.72,2.8,10.87v2.12h-42.04v-6.05h35.85l-3.3,4.71v-2.3c0-2.47-.55-4.6-1.65-6.38-1.1-1.78-2.67-3.16-4.71-4.14-2.04-.98-4.47-1.47-7.29-1.47-2.99,0-5.55.48-7.66,1.43-2.12.95-3.74,2.36-4.86,4.21-1.13,1.86-1.69,4.14-1.69,6.87v1.6c0,3.04.67,5.48,2,7.31,1.34,1.83,3.13,3.15,5.38,3.97,2.25.82,4.76,1.22,7.53,1.22,1.9,0,3.67-.2,5.31-.61s3.06-1,4.27-1.78c1.21-.78,2.1-1.73,2.67-2.84l.15-.3h9.46l-.11.41c-.62,1.96-1.6,3.7-2.93,5.23-1.34,1.53-2.97,2.83-4.9,3.88-1.93,1.05-4.09,1.84-6.49,2.38-2.4.53-4.96.8-7.68.8Z"/><path class="cls-3" d="M543.73,430.53c-6.61,0-12.35-1.13-17.24-3.4-4.89-2.26-8.67-5.48-11.36-9.65-2.68-4.17-4.03-9.07-4.03-14.71v-.07c0-5.64,1.34-10.54,4.03-14.7,2.68-4.16,6.47-7.37,11.36-9.63,4.89-2.26,10.63-3.4,17.24-3.4s12.28,1.14,17.18,3.41c4.9,2.28,8.7,5.49,11.39,9.63,2.7,4.14,4.04,9.04,4.04,14.68v.07c0,5.64-1.35,10.54-4.04,14.7-2.7,4.16-6.49,7.37-11.37,9.65-4.89,2.28-10.62,3.41-17.2,3.41ZM543.73,422.07c4.48,0,8.38-.79,11.71-2.36,3.33-1.57,5.9-3.8,7.72-6.7s2.73-6.31,2.73-10.24v-.07c0-3.93-.92-7.34-2.75-10.22-1.83-2.88-4.41-5.11-7.74-6.68-3.33-1.57-7.22-2.36-11.67-2.36s-8.41.79-11.73,2.36c-3.32,1.57-5.89,3.8-7.74,6.68-1.84,2.88-2.76,6.29-2.76,10.22v.07c0,3.93.92,7.35,2.76,10.24,1.84,2.89,4.42,5.13,7.74,6.7,3.31,1.57,7.22,2.36,11.73,2.36Z"/><path class="cls-3" d="M611.02,430.53c-5.71,0-10.64-.61-14.77-1.84-4.13-1.22-7.38-3.02-9.76-5.4s-3.79-5.24-4.23-8.61l-.07-.48h10.09l.07.41c.47,1.71,1.48,3.15,3.04,4.34s3.68,2.08,6.36,2.67c2.68.59,5.92.89,9.7.89,3.31,0,6.13-.32,8.46-.95,2.33-.63,4.1-1.57,5.33-2.82,1.22-1.25,1.84-2.71,1.84-4.4v-.04c0-2.2-.87-3.85-2.6-4.94-1.73-1.09-4.74-1.86-9.02-2.3l-12.88-1.11c-6.46-.67-11.25-2.22-14.38-4.66-3.13-2.44-4.69-5.81-4.69-10.11v-.07c0-3.31,1.03-6.17,3.1-8.57,2.07-2.4,5-4.26,8.79-5.58,3.8-1.32,8.29-1.99,13.49-1.99s10.01.62,13.92,1.87c3.91,1.25,7,3.06,9.26,5.44s3.64,5.25,4.14,8.61l.04.41h-10.02l-.11-.33c-.52-1.78-1.48-3.26-2.89-4.43-1.41-1.17-3.3-2.06-5.68-2.65s-5.27-.89-8.68-.89c-3.22,0-5.95.3-8.2.91-2.25.61-3.96,1.48-5.12,2.63-1.16,1.15-1.74,2.54-1.74,4.17v.04c0,2.03.88,3.58,2.65,4.66,1.77,1.08,4.64,1.84,8.63,2.28l12.99,1.08c4.45.5,8.1,1.35,10.93,2.56,2.83,1.21,4.94,2.84,6.33,4.88,1.38,2.04,2.08,4.53,2.08,7.48v.04c0,3.54-1.04,6.56-3.12,9.05-2.08,2.5-5.08,4.42-9,5.75-3.92,1.34-8.68,2-14.27,2Z"/><path class="cls-3" d="M663.88,442.52v-52.18h9.87v7.35h.22c1.01-1.63,2.35-3.07,4.01-4.3,1.66-1.24,3.62-2.2,5.88-2.88,2.26-.68,4.79-1.02,7.59-1.02,4.35,0,8.12.86,11.3,2.58,3.18,1.72,5.63,4.12,7.37,7.2,1.73,3.08,2.6,6.62,2.6,10.63v.07c0,4.03-.87,7.58-2.6,10.65-1.73,3.07-4.18,5.47-7.35,7.2-3.17,1.73-6.93,2.6-11.28,2.6-2.77,0-5.29-.33-7.57-1-2.28-.67-4.25-1.62-5.92-2.86-1.67-1.24-3.01-2.68-4.03-4.34h-.22v20.3h-9.87ZM688.38,422.81c2.97,0,5.52-.52,7.66-1.56,2.14-1.04,3.77-2.52,4.9-4.43,1.12-1.92,1.69-4.21,1.69-6.88v-.07c0-2.62-.56-4.9-1.69-6.83-1.13-1.93-2.76-3.41-4.92-4.43-2.15-1.03-4.7-1.54-7.64-1.54s-5.55.53-7.74,1.58c-2.19,1.05-3.89,2.55-5.1,4.49-1.21,1.94-1.82,4.2-1.82,6.77v.07c0,2.57.61,4.83,1.82,6.77,1.21,1.94,2.91,3.44,5.08,4.49,2.18,1.05,4.76,1.58,7.76,1.58Z"/><path class="cls-3" d="M719.52,429.53v-53.55h9.91v53.55h-9.91Z"/><path class="cls-3" d="M753.71,430.27c-3.49,0-6.53-.48-9.11-1.43s-4.6-2.34-6.03-4.16-2.15-4.05-2.15-6.7v-.07c0-2.2.57-4.15,1.71-5.84,1.14-1.69,2.93-3.02,5.38-3.97,2.45-.95,5.64-1.48,9.57-1.58l22.45-.48v5.9l-21.08.52c-2.89.07-4.99.56-6.27,1.45s-1.93,2.09-1.93,3.6v.07c0,1.93.9,3.37,2.71,4.32,1.81.95,4.21,1.43,7.2,1.43s5.43-.41,7.61-1.22,3.86-1.95,5.05-3.4,1.78-3.16,1.78-5.14v-8.65c0-2.62-1-4.64-2.99-6.07-1.99-1.42-4.83-2.13-8.52-2.13-3.22,0-5.8.53-7.76,1.6-1.95,1.06-3.17,2.5-3.64,4.3l-.11.33h-9.43l.07-.45c.42-2.52,1.51-4.77,3.27-6.75,1.76-1.98,4.12-3.53,7.11-4.64s6.53-1.67,10.63-1.67c4.45,0,8.26.61,11.41,1.82,3.15,1.21,5.58,2.95,7.27,5.21s2.54,4.97,2.54,8.11v24.94h-9.87v-6.83h-.19c-.92,1.56-2.2,2.9-3.86,4.03-1.66,1.13-3.58,2-5.75,2.62s-4.54.93-7.09.93Z"/><path class="cls-3" d="M809.38,430.2c-5.39,0-9.36-1.05-11.91-3.15-2.55-2.1-3.82-5.46-3.82-10.06v-19.41h-8.28v-7.24h8.28v-10.09h9.95v10.09h12.62v7.24h-12.62v18.37c0,2.6.64,4.42,1.91,5.46s3.36,1.56,6.25,1.56c.77,0,1.56-.04,2.38-.13.82-.09,1.51-.17,2.08-.24v7.05c-.92.17-1.96.31-3.14.41-1.17.1-2.41.15-3.69.15Z"/><path class="cls-3" d="M828.32,429.53v-31.95h-8.09v-7.24h8.09v-2.12c0-3.02.59-5.51,1.76-7.48s2.91-3.43,5.2-4.38c2.29-.95,5.14-1.43,8.55-1.43,1.39,0,2.73.07,4.03.2,1.3.14,2.41.3,3.32.5v6.57c-.92-.17-1.79-.3-2.63-.37s-1.74-.11-2.71-.11c-2.7,0-4.68.53-5.96,1.6-1.27,1.06-1.91,2.73-1.91,5.01v2h13.03v7.24h-12.8v31.95h-9.87Z"/><path class="cls-3" d="M875.94,430.42c-4.87,0-9.13-.83-12.78-2.5s-6.49-4.03-8.52-7.09c-2.03-3.05-3.04-6.67-3.04-10.85v-.07c0-4.21,1.02-7.82,3.06-10.85,2.04-3.03,4.88-5.39,8.52-7.07,3.64-1.68,7.88-2.52,12.73-2.52s9.1.83,12.77,2.5,6.51,4.03,8.54,7.07,3.04,6.67,3.04,10.87v.07c0,4.18-1.01,7.8-3.04,10.85-2.03,3.06-4.87,5.42-8.54,7.09s-7.9,2.5-12.73,2.5ZM875.94,422.89c2.82,0,5.3-.51,7.44-1.54,2.14-1.03,3.81-2.49,5.01-4.4,1.2-1.9,1.8-4.23,1.8-6.98v-.07c0-2.75-.6-5.08-1.8-7.01s-2.88-3.4-5.03-4.4-4.64-1.5-7.46-1.5-5.26.51-7.4,1.52c-2.14,1.01-3.81,2.48-5.01,4.4-1.2,1.92-1.8,4.25-1.8,7v.07c0,2.75.6,5.07,1.8,6.98,1.2,1.91,2.87,3.37,5.01,4.4,2.14,1.03,4.62,1.54,7.44,1.54Z"/><path class="cls-3" d="M906.75,429.53v-39.19l9.87.04v7.87h.22c.84-2.72,2.38-4.85,4.6-6.38,2.23-1.53,4.94-2.3,8.13-2.3.74,0,1.45.04,2.12.11s1.24.16,1.71.26v8.35c-.62-.12-1.32-.22-2.12-.3s-1.62-.11-2.49-.11c-2.47,0-4.62.46-6.44,1.39s-3.23,2.3-4.23,4.12-1.5,4.05-1.5,6.7v19.45h-9.87Z"/><path class="cls-3" d="M938.64,429.53v-39.19h9.91v7.53h.19c1.26-2.75,3.18-4.84,5.75-6.27,2.57-1.43,5.54-2.15,8.91-2.15,2.47,0,4.69.37,6.64,1.09,1.95.73,3.61,1.8,4.97,3.21s2.4,3.09,3.12,5.05h.15c.99-2.03,2.26-3.74,3.82-5.14,1.56-1.4,3.38-2.45,5.46-3.15s4.32-1.06,6.72-1.06c3.59,0,6.62.7,9.11,2.1,2.49,1.4,4.37,3.38,5.66,5.96,1.29,2.57,1.93,5.6,1.93,9.09v22.93h-9.83v-20.97c0-2.4-.38-4.45-1.13-6.14-.75-1.69-1.88-2.99-3.38-3.88s-3.37-1.34-5.62-1.34c-2.4,0-4.45.5-6.14,1.48-1.69.99-2.99,2.39-3.88,4.21s-1.34,3.94-1.34,6.36v20.26h-9.61v-21.15c0-2.35-.38-4.36-1.13-6.03s-1.88-2.94-3.38-3.82c-1.5-.88-3.37-1.32-5.62-1.32s-4.37.5-6.07,1.5-3,2.42-3.92,4.25c-.92,1.83-1.37,3.96-1.37,6.38v20.19h-9.91Z"/><path class="cls-3" d="M1039.81,430.42c-4.58,0-8.48-.48-11.71-1.45s-5.75-2.36-7.57-4.17-2.89-4-3.21-6.55l-.04-.33h9.72l.07.3c.45,1.81,1.73,3.17,3.86,4.1s5.13,1.39,9.02,1.39c2.33,0,4.27-.2,5.84-.59,1.57-.4,2.77-.98,3.6-1.76s1.24-1.73,1.24-2.84v-.04c0-1.34-.54-2.34-1.63-3.01s-2.99-1.16-5.71-1.48l-10.8-1.15c-3.14-.35-5.75-.98-7.81-1.91s-3.62-2.16-4.66-3.69c-1.04-1.53-1.56-3.34-1.56-5.42v-.04c0-2.55.8-4.75,2.39-6.61s3.87-3.27,6.83-4.25c2.96-.98,6.49-1.47,10.59-1.47,4.38,0,8.1.49,11.15,1.47,3.06.98,5.42,2.37,7.09,4.17,1.67,1.81,2.62,3.93,2.84,6.38l.04.48h-9.2l-.04-.26c-.3-1.71-1.47-3.05-3.51-4.03-2.04-.98-4.78-1.47-8.22-1.47-2.2,0-4.06.2-5.58.59-1.52.4-2.67.98-3.45,1.74-.78.77-1.17,1.7-1.17,2.78v.04c0,.82.25,1.52.74,2.12s1.28,1.08,2.36,1.47c1.08.38,2.49.67,4.25.87l10.98,1.11c4.97.57,8.55,1.73,10.72,3.47s3.27,4.19,3.27,7.33v.04c0,2.62-.82,4.88-2.47,6.77s-4.02,3.35-7.12,4.36-6.82,1.52-11.15,1.52Z"/></g><path class="cls-3" d="M373.55,208.89c0-2.59.61-5.93,2.13-10.04L442.47,17.81C446.88,5.64,454.33.01,466.35.01s19.17,5.48,23.73,17.65l66.94,181.19c1.52,4.26,2.13,7.15,2.13,10.04,0,8.98-7.15,15.52-17.04,15.52-9.13,0-14.15-4.26-17.19-14l-16.73-47.31h-83.98l-16.58,47.16c-3.19,9.89-8.22,14.15-17.04,14.15-10.19,0-17.04-6.24-17.04-15.52ZM499.52,135.25l-33.01-96.3h-.91l-32.71,96.3h66.63Z"/><path class="cls-3" d="M572.25,211.02c0-3.5,1.22-6.69,3.8-10.34l42.9-58.57-42.29-58.72c-2.28-3.19-3.35-6.39-3.35-10.19,0-8.06,6.85-14.15,15.82-14.15,6.24,0,9.58,2.13,13.54,8.21l36.05,52.64h.61l35.29-52.18c3.96-6.24,7.61-8.67,13.24-8.67,9.28,0,15.82,5.93,15.82,14,0,3.8-1.07,7-3.8,10.5l-42.29,57.51,42.14,59.33c2.43,3.5,3.5,6.69,3.5,10.04,0,8.52-6.69,14.45-15.67,14.45-5.78,0-9.58-2.43-12.78-7.3l-36.82-54.46h-.76l-36.82,54.16c-3.65,5.63-7.3,7.61-12.93,7.61-8.82,0-15.21-5.78-15.21-13.84Z"/><path class="cls-3" d="M723.02,18.88c0-10.5,8.52-18.71,19.02-18.71s19.17,8.21,19.17,18.71-8.52,18.86-19.17,18.86-19.02-8.52-19.02-18.86ZM725.61,207.52V76.53c0-10.65,6.54-17.49,16.43-17.49s16.43,6.85,16.43,17.49v130.98c0,10.5-6.54,17.34-16.43,17.34s-16.43-6.85-16.43-17.34Z"/><path class="cls-3" d="M778.71,141.95c0-51.42,30.27-82.91,75.91-82.91s75.91,31.49,75.91,82.91-30.12,83.06-75.91,83.06-75.91-31.49-75.91-83.06ZM897.07,141.95c0-35.45-16.73-55.83-42.44-55.83s-42.44,20.39-42.44,55.83,16.73,55.98,42.44,55.98,42.44-20.39,42.44-55.98Z"/><path class="cls-3" d="M949.72,207.52V75.77c0-10.34,6.39-16.73,15.67-16.73s15.67,6.24,15.67,16.73v13.08h.76c7.15-17.8,23.88-29.67,45.49-29.67s38.34,11.41,44.73,31.34h.76c8.21-19.47,27.08-31.34,49.9-31.34,31.64,0,52.33,20.99,52.33,52.79v95.54c0,10.5-6.69,17.34-16.58,17.34s-16.43-6.85-16.43-17.34v-87.63c0-20.69-11.11-32.56-30.58-32.56s-33.01,14.45-33.01,34.69v85.5c0,10.5-6.24,17.34-16.13,17.34s-16.13-6.85-16.13-17.34v-90.06c0-18.41-11.71-30.12-30.27-30.12-19.47,0-33.32,15.21-33.32,35.75v84.43c0,10.5-6.54,17.34-16.43,17.34s-16.43-6.85-16.43-17.34Z"/><path class="cls-1" d="M22,23.14l96,97L22,217.14"/><path class="cls-1" d="M157.9,207.14h146"/></svg>